PathFileType	4	(X/Y/Z)	C:\Users\WrightLab\Desktop\Jo\P2_Trial31.trc
DataRate	CameraRate	NumFrames	NumMarkers	Units	OrigDataRate	OrigDataStartFrame	OrigNumFrames
100.00	100.00	       25	19	mm	100.00	102	       812
Frame#	Time	Headset_Front			Headset_Back			Headset_Left			Headset_Right			Left_Shoulder			Right_Shoulder			Sternum			C7			Left Elbow			Right Elbow			Left Wrist			Right Wrist			Left ASIS			Right ASIS			S2			Left Knee			Right Knee			Left Ankle			Right Ankle			
		X1	Y1	Z1	X2	Y2	Z2	X3	Y3	Z3	X4	Y4	Z4	X5	Y5	Z5	X6	Y6	Z6	X7	Y7	Z7	X8	Y8	Z8	X9	Y9	Z9	X10	Y10	Z10	X11	Y11	Z11	X12	Y12	Z12	X13	Y13	Z13	X14	Y14	Z14	X15	Y15	Z15	X16	Y16	Z16	X17	Y17	Z17	X18	Y18	Z18	X19	Y19	Z19	

102	1.010																21.64791	1075.94385	-1470.34509													-218.81470	904.66418	-1610.48328													-61.00494	420.97610	-1450.89868				-78.74333	60.67194	-1468.30127				
103	1.020																22.72503	1075.37219	-1468.71399													-217.92004	904.49249	-1610.66772													-60.50317	420.72498	-1449.94409				-78.64281	60.70018	-1467.80420				
104	1.030																24.16014	1074.80518	-1467.69604													-217.09671	903.87396	-1610.26331													-60.81596	419.53433	-1448.51685				-78.32137	60.46703	-1467.90198				
105	1.040																25.75630	1074.68481	-1467.35107													-216.22357	903.13031	-1609.52930													-60.29401	419.06549	-1448.03699				-78.12864	60.25857	-1467.89758				
106	1.050																28.08956	1074.44556	-1466.85168													-215.39897	902.38184	-1609.17102													-59.59253	420.17880	-1448.41138				-78.01186	60.23643	-1467.46521				
107	1.060																30.58329	1073.11755	-1467.27771													-214.44099	902.02118	-1608.98242													-59.17522	419.76392	-1448.00317				-77.58765	59.55458	-1467.46851				
108	1.070																31.20584	1073.36414	-1464.09009													-213.43523	901.13623	-1607.89111													-58.60215	419.02185	-1447.41223				-77.38734	59.59341	-1466.79871				
109	1.080																33.62474	1073.03992	-1466.04126													-212.30151	900.28540	-1607.05432													-57.84393	418.84174	-1447.60364				-77.14310	59.07919	-1467.41663				
110	1.090																36.64117	1072.15637	-1467.27893													-211.20740	899.97577	-1606.82471													-56.89693	418.35980	-1447.82654				-76.64316	58.77575	-1467.33777				
111	1.100																37.51476	1072.48352	-1463.72839													-209.92755	899.67682	-1606.32117													-56.18023	418.16232	-1448.36157				-75.77418	58.08658	-1468.02856				
112	1.110																38.12545	1072.96924	-1460.53357													-208.62836	899.54559	-1605.68713													-55.57006	417.79626	-1447.39600				-75.20223	58.07283	-1468.78528				
113	1.120																41.25266	1072.94116	-1464.47449													-207.26982	899.46039	-1604.98108													-55.11554	417.79657	-1446.58667				-74.71484	58.01279	-1468.66931				
114	1.130																42.59303	1072.67712	-1464.00647													-205.85703	899.63623	-1604.31165													-54.64456	417.37405	-1446.38379				-74.45125	57.86831	-1468.85547				
115	1.140																43.64718	1072.86780	-1462.11865													-204.35060	899.96149	-1603.86560													-53.30353	418.07407	-1447.30103				-74.30071	57.73878	-1468.97363				
116	1.150																44.22165	1073.61108	-1458.88928													-202.93950	900.31628	-1603.37439													-52.63840	418.07214	-1446.91162				-74.26031	57.92771	-1468.64087				
117	1.160																45.35854	1074.08960	-1458.32813													-201.53217	900.58173	-1602.76355													-51.19779	417.89618	-1447.40833				-73.70787	58.44186	-1468.89978				
118	1.170																47.53960	1074.34692	-1460.19739													-200.31378	900.86243	-1602.26440													-49.57527	417.82962	-1447.55188				-73.54163	58.46498	-1468.96082				
119	1.180																47.83266	1074.79834	-1458.07141													-199.00392	900.66736	-1600.72998													-48.70200	417.49084	-1446.74353				-73.14497	58.40075	-1468.83728				
120	1.190																48.05476	1075.10132	-1456.41992													-198.10851	900.82922	-1600.48145				-169.22318	1016.16669	-1354.13660							-47.10144	417.85959	-1448.42578				-72.39193	58.62859	-1469.47192				
121	1.200																52.23954	1075.13989	-1463.79016													-197.19305	900.48132	-1599.08569				-168.96600	1015.66296	-1353.47949							-46.12766	417.51071	-1447.66467				-71.81779	58.45364	-1468.50818				
122	1.210																49.94682	1074.75146	-1454.20105													-196.44930	900.37036	-1598.69360				-168.81238	1015.83881	-1352.47620							-45.51868	417.33661	-1447.59717				-71.52610	58.37122	-1468.51343				
123	1.220																50.98631	1074.80420	-1452.24158													-195.76678	899.64130	-1597.08228				-168.67419	1015.93982	-1351.56616							-42.83723	417.27798	-1448.41638				-70.89421	57.83504	-1468.96875				
124	1.230																51.49997	1074.90771	-1449.99060													-195.14438	899.25134	-1596.18567				-168.57431	1015.94385	-1350.89905							-42.76087	415.99329	-1446.89209				-69.95818	57.50907	-1469.82092				
125	1.240																51.87210	1075.22998	-1447.35132													-194.33844	898.80646	-1594.78137				-169.41534	1015.21405	-1347.31458							-41.77488	416.26776	-1447.69153				-68.65041	56.96463	-1469.75842				
126	1.250																52.25727	1075.15356	-1445.78833													-193.69691	898.69470	-1594.07568				-169.41911	1015.03992	-1347.31787							-40.85489	416.66205	-1448.31226				-68.05042	56.81121	-1469.54663				
